<?xml version="1.0" encoding="UTF-8" standalone="no"?>
<!-- Created with Inkscape (http://www.inkscape.org/) -->

<svg
   xmlns:dc="http://purl.org/dc/elements/1.1/"
   xmlns:cc="http://creativecommons.org/ns#"
   xmlns:rdf="http://www.w3.org/1999/02/22-rdf-syntax-ns#"
   xmlns:svg="http://www.w3.org/2000/svg"
   xmlns="http://www.w3.org/2000/svg"
   xmlns:sodipodi="http://sodipodi.sourceforge.net/DTD/sodipodi-0.dtd"
   xmlns:inkscape="http://www.inkscape.org/namespaces/inkscape"
   width="19"
   height="19"
   id="svg2"
   version="1.1"
   inkscape:version="0.48.1 "
   sodipodi:docname="messagegraph.svg">
  <defs
     id="defs4" />
  <sodipodi:namedview
     id="base"
     pagecolor="#ffffff"
     bordercolor="#666666"
     borderopacity="1.0"
     inkscape:pageopacity="0.0"
     inkscape:pageshadow="2"
     inkscape:zoom="16"
     inkscape:cx="4.8562139"
     inkscape:cy="8.7733925"
     inkscape:document-units="px"
     inkscape:current-layer="layer1"
     showgrid="false"
     inkscape:window-width="1280"
     inkscape:window-height="749"
     inkscape:window-x="-8"
     inkscape:window-y="-8"
     inkscape:window-maximized="1" />
  <metadata
     id="metadata7">
    <rdf:RDF>
      <cc:Work
         rdf:about="">
        <dc:format>image/svg+xml</dc:format>
        <dc:type
           rdf:resource="http://purl.org/dc/dcmitype/StillImage" />
        <dc:title></dc:title>
      </cc:Work>
    </rdf:RDF>
  </metadata>
  <g
     inkscape:label="Layer 1"
     inkscape:groupmode="layer"
     id="layer1"
     transform="translate(0,-1033.3622)">
    <path
       style="color:#000000;fill:none;stroke:#000000;stroke-width:1;stroke-linecap:round;stroke-linejoin:round;stroke-miterlimit:4;stroke-opacity:1;stroke-dasharray:none;marker:none;visibility:visible;display:inline;overflow:visible;enable-background:accumulate"
       d="m 3.2604707,10.43213 c 0.024471,-0.04894 0.05299,-0.09606 0.073412,-0.146829 0.00531,-0.01321 -0.0015,-0.04902 -0.00629,-0.06293 -0.00744,-0.02158 -0.019609,-0.04781 -0.037755,-0.06293 -0.026389,-0.02199 -0.064259,-0.03275 -0.096485,-0.03985 -0.042092,-0.0093 -0.1074006,-0.01532 -0.1489223,-0.01678 -0.073113,-0.0026 -0.1438691,-6.99e-4 -0.2160423,0.01468 -0.046308,0.0099 -0.09158,0.02441 -0.1363374,0.03985 -0.11862,0.04093 -0.2253108,0.0883 -0.3355997,0.148926 -0.062941,0.0346 -0.1238223,0.07287 -0.1845799,0.111171 -0.067913,0.04281 -0.1360778,0.08542 -0.2013598,0.132146 -0.067665,0.04843 -0.1326245,0.100595 -0.1971648,0.153121 -0.1335435,0.108685 -0.2711845,0.229994 -0.3922321,0.35239 -0.062971,0.06367 -0.1229023,0.130314 -0.1824824,0.19717 -0.1189591,0.133487 -0.24839639,0.288455 -0.35447714,0.432096 -0.10769432,0.145827 -0.21673714,0.312032 -0.30623473,0.469853 -0.0459736,0.08107 -0.0883662,0.164152 -0.13004488,0.247512 -0.0778787,0.155762 -0.15081943,0.315007 -0.21184731,0.478243 -0.0405521,0.108467 -0.11156925,0.324129 -0.13214238,0.442584 -0.01068111,0.0615 -0.0121295,0.124315 -0.01468248,0.186682 -0.0023449,0.05729 -0.0066558,0.115054 0,0.172 0.01158075,0.09908 0.05096454,0.193642 0.09648491,0.281073 0.02215,0.04254 0.0438427,0.08599 0.0734124,0.123755 0.0289568,0.03698 0.0648381,0.06823 0.10067991,0.09859 0.0766917,0.06495 0.1398987,0.101438 0.23701729,0.132146 0.0970723,0.03069 0.20971521,0.04231 0.31042971,0.05034 0.0614308,0.0049 0.1229882,0.0084 0.1845799,0.01049 0.1165868,0.0039 0.2878895,0.0035 0.4027196,-0.0063 0.1822345,-0.01562 0.289686,-0.0398 0.4698396,-0.07551 0.079087,-0.01568 0.1582381,-0.03109 0.2370173,-0.04824 0.078548,-0.01711 0.1563424,-0.03757 0.2349197,-0.05454 0.2595059,-0.05605 0.1544717,-0.02365 0.3964272,-0.086 0.09575,-0.02467 0.1886943,-0.04948 0.2789672,-0.09019 0.053853,-0.02429 0.1162573,-0.05755 0.1531174,-0.106975 0.014772,-0.01981 0.020975,-0.04475 0.031463,-0.06712"
       id="path3785"
       inkscape:connector-curvature="0"
       transform="translate(0,1033.3622)" />
    <path
       style="color:#000000;fill:none;stroke:#000000;stroke-width:1;stroke-linecap:round;stroke-linejoin:round;stroke-miterlimit:4;stroke-opacity:1;stroke-dasharray:none;marker:none;visibility:visible;display:inline;overflow:visible;enable-background:accumulate"
       d="m 2.2788416,12.762515 c 0.072713,0.01748 0.1444324,0.03979 0.2181398,0.05244 0.044876,0.0077 0.090829,0.0069 0.1363373,0.0084 0.041929,0.0013 0.0839,0 0.1258499,0 0.044747,0 0.089495,-3.64e-4 0.1342399,0 0.060329,4.9e-4 0.1730026,0.0018 0.2349198,0.0084 0.047659,0.0051 0.1433318,0.02402 0.1929698,0.03356 0.071549,0.01376 0.069859,0.0083 0.1300449,0.03776 0.015189,0.0074 0.031153,0.01423 0.044047,0.02517 0.010663,0.009 0.017414,0.02193 0.02517,0.03356 0.00905,0.01357 0.019058,0.02683 0.02517,0.04195 0.027062,0.06694 0.022156,0.175705 0.020975,0.245414 -0.00246,0.145413 -0.0026,0.15551 -0.023073,0.306244 -0.008,0.05889 -0.019978,0.117212 -0.027267,0.176194 -0.0081,0.06553 -0.011391,0.131573 -0.018878,0.197171 -0.043077,0.377451 -0.00934,1.08e-4 -0.044047,0.37756 -0.00375,0.04073 -0.022697,0.268156 -0.02517,0.320926 -0.00193,0.04121 -0.00133,0.0825 -0.0021,0.123756 -0.00256,0.137151 -0.0021,0.05772 -0.0021,0.167804 0,0.02797 0,0.05593 0,0.0839 0,0.0042 0.0042,0.01259 0,0.01259 -0.0042,0 9.608e-4,-0.0085 0,-0.01259 -0.00187,-0.008 -0.0058,-0.01531 -0.00839,-0.02307 -0.0051,-0.01531 -0.00979,-0.03076 -0.014682,-0.04615"
       id="path3787"
       inkscape:connector-curvature="0"
       transform="translate(0,1033.3622)" />
    <path
       style="color:#000000;fill:none;stroke:#000000;stroke-width:1;stroke-linecap:round;stroke-linejoin:round;stroke-miterlimit:4;stroke-opacity:1;stroke-dasharray:none;marker:none;visibility:visible;display:inline;overflow:visible;enable-background:accumulate"
       d="m 4.7727668,10.295789 c 0.020975,0.07831 0.051658,0.154644 0.062925,0.234927 0.00576,0.04106 -0.00963,0.0824 -0.012585,0.123755 -0.00404,0.05656 -0.00536,0.11328 -0.00839,0.169902 -0.00396,0.07413 -0.00809,0.148245 -0.012585,0.222341 -0.0053,0.08742 -0.012568,0.174719 -0.01678,0.262195 -0.00488,0.101325 -0.00581,0.202812 -0.010487,0.304146 -0.00511,0.110532 -0.014101,0.220866 -0.018878,0.331413 -0.00422,0.09763 -0.017743,0.607417 -0.018877,0.702682 -0.00139,0.116755 0,0.233528 0,0.350292 0,0.139346 -7.975e-4,0.459121 0.0021,0.606193 0.010504,0.533614 0.00839,-7.75e-4 0.00839,0.43839 0,0.02437 9.487e-4,0.234664 -0.0021,0.276877 -0.00399,0.05523 -0.015371,0.09211 -0.023072,0.144731 -0.00132,0.009 -1.199e-4,0.01837 -0.0021,0.02727 -8.843e-4,0.004 -0.00242,0.01178 -0.00629,0.01049 -0.00398,-0.0013 7.375e-4,-0.0085 0,-0.01259 -0.00277,-0.01553 -0.0075,-0.03066 -0.010487,-0.04615 -0.0047,-0.02438 -0.00754,-0.0491 -0.012585,-0.07341 -0.058087,-0.28019 0.015197,0.113643 -0.046145,-0.226536"
       id="path3789"
       inkscape:connector-curvature="0"
       transform="translate(0,1033.3622)" />
    <path
       style="color:#000000;fill:none;stroke:#000000;stroke-width:1.1;stroke-linecap:round;stroke-linejoin:round;stroke-miterlimit:4;stroke-opacity:1;stroke-dasharray:none;marker:none;visibility:visible;display:inline;overflow:visible;enable-background:accumulate"
       d="m 5.4880136,10.155253 c 0.06336,-8.2e-4 0.035353,-0.154197 0.096485,-0.1908776 0.011946,-0.00717 0.026104,-0.010341 0.039853,-0.012585 0.060949,-0.00995 0.092891,-0.00147 0.1573124,0.00839 0.086188,0.013192 0.1564476,0.025645 0.2412122,0.050342 0.046449,0.01353 0.2295879,0.07786 0.2726748,0.09858 0.094711,0.04555 0.1846464,0.109466 0.2684798,0.171999 0.1157411,0.08633 0.1404146,0.106172 0.2391147,0.211854 0.036311,0.03888 0.1445725,0.165218 0.1740924,0.21395 0.021556,0.03559 0.037236,0.07454 0.052437,0.113268 0.014219,0.03623 0.027289,0.07316 0.035658,0.111171 0.015942,0.0724 0.021125,0.174975 0.00839,0.247511 -0.020001,0.113922 -0.060566,0.194442 -0.1195574,0.293658 -0.033002,0.0555 -0.068176,0.109891 -0.1069724,0.161512 -0.1043284,0.138814 -0.1765148,0.210906 -0.3104297,0.323024 -0.129014,0.108014 -0.2480605,0.19279 -0.3964272,0.272682 -0.065825,0.03545 -0.1349472,0.06446 -0.2034573,0.09439 -0.064367,0.02812 -0.1285047,0.05727 -0.1950673,0.07971 -0.1008902,0.034 -0.251543,0.06528 -0.3586722,0.07551 -0.1260876,0.01205 -0.2712947,0.0079 -0.3901346,-0.04195 -0.021969,-0.0092 -0.1024474,-0.0571 -0.1153624,-0.0881 -0.00111,-0.0027 -7.461e-4,-0.0079 0.0021,-0.0084 0.00771,-0.0013 0.015771,0.0014 0.023072,0.0042 0.01665,0.0064 0.032605,0.01452 0.048242,0.02307 0.1056198,0.05779 0.022333,0.01899 0.1405324,0.09019 0.031355,0.01889 0.064867,0.03399 0.096485,0.05244 0.096743,0.05644 0.1180249,0.07576 0.2139448,0.136341 0.042987,0.02715 0.087377,0.05206 0.1300449,0.07971 0.1240362,0.08038 0.1448525,0.09941 0.2621873,0.190878 0.045558,0.03551 0.092188,0.06972 0.1363373,0.106975 0.1189986,0.100408 0.1455341,0.134808 0.2558948,0.243316 0.2556986,0.251409 5.412e-4,-0.0085 0.2391148,0.245415 0.075443,0.08029 0.1546326,0.157445 0.2286273,0.239121 0.037272,0.04114 0.071993,0.08454 0.1090699,0.125853 0.036346,0.0405 0.075058,0.07885 0.1111674,0.119561 0.1046417,0.117982 0.095771,0.121738 0.2034573,0.232829 0.031665,0.03267 0.066413,0.06222 0.098582,0.09439 0.030072,0.03007 0.057649,0.0626 0.088095,0.09229 0.026229,0.02558 0.055176,0.04825 0.081802,0.07342 0.097616,0.09227 0.042694,0.04827 0.1363374,0.134243 0.020447,0.01877 0.042572,0.03566 0.062925,0.05454 0.018126,0.01681 0.034958,0.03496 0.052437,0.05244 0.00482,0.0048 0.05745,0.05652 0.065022,0.06712 0.00296,0.0041 0.0032,0.0097 0.0042,0.01468 4.113e-4,0.0021 0.00193,0.0055 0,0.0063 -0.0045,0.0019 -0.00979,0 -0.014683,0"
       id="path3791"
       inkscape:connector-curvature="0"
       transform="translate(0,1033.3622)" />
    <path
       style="color:#000000;fill:none;stroke:#000000;stroke-width:1;stroke-linecap:round;stroke-linejoin:round;stroke-miterlimit:4;stroke-opacity:1;stroke-dasharray:none;marker:none;visibility:visible;display:inline;overflow:visible;enable-background:accumulate"
       d="m 9.3054602,10.195107 c -0.052437,0.0035 -0.1079228,-0.0075 -0.1573124,0.01049 -0.025761,0.0094 -0.034302,0.04279 -0.05034,0.06503 -0.042091,0.05834 -0.1170377,0.172283 -0.1531174,0.228633 -0.1222237,0.190894 -0.2357098,0.387031 -0.3418922,0.587316 -0.045259,0.08537 -0.090136,0.170984 -0.1321424,0.257999 -0.044481,0.09214 -0.2355283,0.518141 -0.2705772,0.604097 -0.044864,0.110026 -0.085048,0.221914 -0.1258499,0.333511 -0.077108,0.210898 -0.1609236,0.451857 -0.2265298,0.667023 -0.031372,0.102889 -0.058545,0.207011 -0.088095,0.310438 -0.026384,0.09235 -0.054751,0.184136 -0.079705,0.276878 -0.041521,0.154313 -0.074249,0.306234 -0.1111674,0.461462 -0.013654,0.05741 -0.029109,0.1144 -0.04195,0.172 -0.023856,0.107013 -0.037172,0.184695 -0.052437,0.29156 -0.00478,0.03348 -0.0099,0.06697 -0.012585,0.100683 -0.00222,0.02789 -0.00168,0.05593 -0.0021,0.0839 -2.817e-4,0.01888 -9.921e-4,0.03778 0,0.05663 4.109e-4,0.0078 -0.00157,0.01779 0.0042,0.02307 0.015949,0.01462 0.038776,-0.01498 0.052437,-0.03566 0.029903,-0.04526 0.0927,-0.173416 0.1111674,-0.209756"
       id="path3793"
       inkscape:connector-curvature="0"
       transform="translate(0,1033.3622)" />
    <path
       style="color:#000000;fill:none;stroke:#000000;stroke-width:1;stroke-linecap:round;stroke-linejoin:round;stroke-miterlimit:4;stroke-opacity:1;stroke-dasharray:none;marker:none;visibility:visible;display:inline;overflow:visible;enable-background:accumulate"
       d="m 9.8172497,10.109107 c 0.013284,0.05314 0.033231,0.105042 0.039853,0.159414 0.00676,0.05552 -0.00125,0.111884 0,0.167805 0.00155,0.06926 0.00488,0.138471 0.00839,0.207658 0.015675,0.30923 0.00995,0.197193 0.046145,0.518096 0.010799,0.09575 0.01875,0.191847 0.031462,0.287365 0.026232,0.197101 0.064059,0.398293 0.1006793,0.593609 0.01915,0.102161 0.03734,0.204527 0.05873,0.306243 0.04254,0.202252 0.09362,0.401807 0.144728,0.601998 0.05639,0.220875 0.08971,0.353315 0.155215,0.570536 0.02628,0.08713 0.122278,0.380593 0.153117,0.474047 0.02148,0.06509 0.04335,0.130049 0.06502,0.195073 0.01748,0.05244 0.03404,0.105193 0.05244,0.157317 0.167178,0.443398 -0.04865,-0.13724 0.07971,0.230731 0.05105,0.125927 0.01453,0.02889 0.05034,0.140536 0.02575,0.08029 0.0052,0.01869 0.03356,0.07971 0.0041,0.0088 0.0065,0.01837 0.01049,0.02727 0.0077,0.0174 0.0063,0.0033 0.0063,0.01888 0,0.0014 0.0014,0.004 0,0.0042 -0.03278,0.0036 -0.0827,-0.03615 -0.104875,-0.05034"
       id="path3795"
       inkscape:connector-curvature="0"
       transform="translate(0,1033.3622)" />
    <path
       style="color:#000000;fill:none;stroke:#000000;stroke-width:1;stroke-linecap:round;stroke-linejoin:round;stroke-miterlimit:4;stroke-opacity:1;stroke-dasharray:none;marker:none;visibility:visible;display:inline;overflow:visible;enable-background:accumulate"
       d="m 8.1392512,12.995344 c -0.2863471,-0.02603 -0.072162,8.07e-4 -0.2160423,-0.02727 -0.010384,-0.002 -0.02293,0.0021 -0.031462,-0.0042 -0.00507,-0.0037 -0.0052,-0.01534 0,-0.01888 0.015176,-0.01032 0.034453,-0.02044 0.052437,-0.01678 0.067385,0.01371 0.1269169,0.07629 0.1950673,0.06712 0.066134,-0.0089 0.1010293,-0.09219 0.1636049,-0.115365 0.02504,-0.0093 0.3462854,-0.01448 0.3649646,-0.01468 0.040506,-4.41e-4 0.3447164,-2.96e-4 0.3880372,0.0021 0.1230125,0.0068 0.250592,0.02592 0.3712572,0.05034 0.060768,0.0123 0.2590984,0.0611 0.3230147,0.07971 0.4625942,0.134639 -0.1499155,-0.03433 0.2286273,0.07132 0.026462,0.0074 0.052697,0.01594 0.079705,0.02097 0.0044,8.29e-4 0.06278,0.0053 0.07341,-0.0021 0.01896,-0.01327 0.01289,-0.05497 0.01258,-0.06922 -3.87e-4,-0.01819 -0.0014,-0.03636 -0.0021,-0.05454"
       id="path3797"
       inkscape:connector-curvature="0"
       transform="translate(0,1033.3622)" />
    <path
       style="color:#000000;fill:none;stroke:#000000;stroke-width:1;stroke-linecap:round;stroke-linejoin:round;stroke-miterlimit:4;stroke-opacity:1;stroke-dasharray:none;marker:none;visibility:visible;display:inline;overflow:visible;enable-background:accumulate"
       d="m 12.101425,10.293692 c -0.01075,1.55e-4 -0.156287,0.003 -0.20136,0.0021 -0.04684,-9.01e-4 -0.09364,-0.0035 -0.140532,-0.0021 -0.03513,0.0011 -0.02111,0.0025 -0.05244,0.0042 -0.0049,2.71e-4 -0.0098,0 -0.01468,0 -0.0021,0 -0.0082,9.38e-4 -0.0063,0 0.0046,-0.0023 0.01013,-0.0019 0.01468,-0.0042 0.07261,-0.0363 -0.0059,-0.0091 0.09019,-0.03776 0.02862,-0.0085 0.05635,-0.02878 0.086,-0.02517 0.07713,0.0094 0.148261,0.07824 0.224432,0.06293 0.06996,-0.01407 0.09703,-0.10995 0.161507,-0.140537 0.0501,-0.02376 0.110483,-0.0096 0.165703,-0.01468 0.208123,-0.01904 0.15898,-0.0212 0.377549,-0.01678 0.143071,0.0029 0.299551,0.0085 0.440475,0.03566 0.07876,0.01517 0.155915,0.03804 0.232822,0.06083 0.130197,0.03858 0.298232,0.09799 0.421597,0.157316 0.06261,0.03011 0.123241,0.0644 0.182483,0.100683 0.07966,0.0488 0.214468,0.14424 0.281065,0.213951 0.03651,0.03822 0.06742,0.0817 0.09648,0.125853 0.07802,0.118509 0.120745,0.244615 0.132143,0.385951 0.0035,0.04321 0.0069,0.08725 0,0.130048 -0.01658,0.102798 -0.06085,0.170129 -0.119558,0.253804 -0.03293,0.04694 -0.06717,0.09315 -0.104874,0.136341 -0.07089,0.0812 -0.183971,0.183626 -0.266383,0.251707 -0.115397,0.09533 -0.174841,0.137847 -0.304137,0.211853 -0.05347,0.03061 -0.108073,0.05931 -0.163605,0.086 -0.07916,0.03804 -0.246536,0.10508 -0.327209,0.136341 -0.182098,0.07057 -0.148548,0.05832 -0.333503,0.111171 -0.125548,0.03587 -0.216605,0.06452 -0.346087,0.0839 -0.112997,0.01692 -0.231974,0.0218 -0.346087,0.01678 -0.0547,-0.0024 -0.10907,-0.0098 -0.163605,-0.01468"
       id="path3803"
       inkscape:connector-curvature="0"
       transform="translate(0,1033.3622)" />
    <path
       style="color:#000000;fill:none;stroke:#000000;stroke-width:1;stroke-linecap:round;stroke-linejoin:round;stroke-miterlimit:4;stroke-opacity:1;stroke-dasharray:none;marker:none;visibility:visible;display:inline;overflow:visible;enable-background:accumulate"
       d="m 11.85392,10.381789 c -0.04335,0.05943 -0.09625,0.112955 -0.130045,0.178292 -0.01972,0.03813 -0.01885,0.08376 -0.02727,0.125854 -0.02718,0.135921 -0.04588,0.243732 -0.06292,0.383853 -0.01626,0.133738 -0.0401,0.406481 -0.04614,0.534876 -0.0085,0.180983 -0.0063,0.426466 -0.0063,0.606194 0,0.104179 -0.0014,0.208367 0,0.312536 0.002,0.147586 0.01418,0.463284 0.01888,0.610389 0.01223,0.383166 0.0027,0.181215 0.02097,0.54956 0.0099,0.199281 0.01112,0.272621 0.03356,0.467755 0.0075,0.06523 0.01864,0.129986 0.02727,0.195072 0.0081,0.06147 0.01451,0.123172 0.02307,0.184585 0.0332,0.238156 0.01631,0.08077 0.04405,0.291561 0.0048,0.03629 0.0081,0.07275 0.01258,0.109073 0.0032,0.02591 0.0084,0.05159 0.01049,0.07761 0.0014,0.01812 0,0.03636 0,0.05454 0,0.0098 0.0012,0.01965 0,0.02937 -2.45e-4,0.002 -0.0027,0.0055 -0.0042,0.0042 -0.005,-0.0043 -0.007,-0.01119 -0.01049,-0.01678"
       id="path3805"
       inkscape:connector-curvature="0"
       transform="translate(0,1033.3622)" />
    <path
       style="color:#000000;fill:none;stroke:#000000;stroke-width:1;stroke-linecap:round;stroke-linejoin:round;stroke-miterlimit:4;stroke-opacity:1;stroke-dasharray:none;marker:none;visibility:visible;display:inline;overflow:visible;enable-background:accumulate"
       d="m 15.436447,10.381789 c -0.06083,0.218849 -0.0576,0.446532 -0.07132,0.671218 -0.0048,0.07836 -0.01083,0.156644 -0.01678,0.234926 -0.0028,0.03681 -0.04196,0.523514 -0.04405,0.547463 -0.0085,0.09794 -0.02009,0.195612 -0.02727,0.293657 -0.01329,0.181684 -0.0234,0.441321 -0.02517,0.622975 -0.0011,0.110468 -0.0028,0.221048 0.0021,0.331413 0.0049,0.111433 0.0172,0.222426 0.02727,0.333512 0.01685,0.185948 0.04709,0.471577 0.06922,0.658633 0.04554,0.385079 0.02277,0.137536 0.05663,0.495023 0.007,0.07379 0.02044,0.222502 0.02307,0.302048 0.0013,0.03983 0,0.07971 0,0.119561 0,0.05943 8.25e-4,0.118867 0,0.178292 -3.02e-4,0.02168 -0.0017,0.04334 -0.0021,0.06502 -2.82e-4,0.01468 4.08e-4,0.02937 0,0.04405 -2.92e-4,0.01051 -7.94e-4,0.02103 -0.0021,0.03146 -1.23e-4,9.81e-4 -0.0018,0.003 -0.0021,0.0021 -8.84e-4,-0.0027 -1.21e-4,-0.0056 0,-0.0084 5.78e-4,-0.01329 0.0014,-0.02657 0.0021,-0.03985"
       id="path3807"
       inkscape:connector-curvature="0"
       transform="translate(0,1033.3622)" />
    <path
       style="color:#000000;fill:none;stroke:#000000;stroke-width:1;stroke-linecap:round;stroke-linejoin:round;stroke-miterlimit:4;stroke-opacity:1;stroke-dasharray:none;marker:none;visibility:visible;display:inline;overflow:visible;enable-background:accumulate"
       d="m 18.570109,10.50135 c 6.99e-4,0.07062 0.0048,0.141284 0.0021,0.211853 -0.0015,0.03874 -0.01064,0.07681 -0.01468,0.115366 -0.008,0.07653 -0.02013,0.242765 -0.02517,0.314633 -0.0044,0.06291 -0.0099,0.125769 -0.01259,0.18878 -0.0056,0.134167 -0.0042,0.294013 -0.0042,0.427902 0,0.07341 -0.0013,0.146841 0,0.220243 0.0054,0.292852 0.0082,0.183481 0.02727,0.478243 0.0053,0.08174 0.0072,0.163682 0.01259,0.245414 0.0098,0.147921 0.03256,0.369765 0.03985,0.518096 0.0042,0.08452 0.0038,0.169213 0.0063,0.253805 0.0024,0.08391 0.0069,0.16777 0.0084,0.251706 0.0029,0.169903 3.92e-4,0.276939 -0.0084,0.444682 -0.0033,0.06298 -0.0067,0.125988 -0.01259,0.18878 -0.0053,0.05682 -0.01431,0.113229 -0.02097,0.169902 -0.0059,0.05031 -0.01095,0.10071 -0.01678,0.151024 -0.01466,0.126411 -0.03184,0.252274 -0.03566,0.379658 -9.64e-4,0.03215 7.48e-4,0.06433 0,0.09649 -3.66e-4,0.01573 -0.0064,0.12845 -0.0084,0.151024 -0.0026,0.02915 -0.005,0.06059 -0.01678,0.0881 -0.0016,0.0036 -0.0056,0.0056 -0.0084,0.0084"
       id="path3809"
       inkscape:connector-curvature="0"
       transform="translate(0,1033.3622)" />
    <path
       style="color:#000000;fill:none;stroke:#000000;stroke-width:1;stroke-linecap:round;stroke-linejoin:round;stroke-miterlimit:4;stroke-opacity:1;stroke-dasharray:none;marker:none;visibility:visible;display:inline;overflow:visible;enable-background:accumulate"
       d="m 15.751072,12.825442 c 0.05663,-0.03846 0.105755,-0.09145 0.169897,-0.115366 0.05789,-0.02158 0.123056,-0.01116 0.18458,-0.01678 0.397732,-0.03634 0.05882,-0.0078 0.499205,-0.03776 0.288069,-0.01957 0.575565,-0.04545 0.864169,-0.05663 0.06392,-0.0025 0.407338,-0.0097 0.482424,-0.01049 0.06362,-6.39e-4 0.12725,3.74e-4 0.190873,0 0.05524,-3.25e-4 0.110465,-0.0017 0.165702,-0.0021 0.08879,-6e-4 0.177588,0 0.266382,0 0.115059,0 0.08835,-0.007 0.190873,0.01678 0.02049,0.0048 0.04179,0.0078 0.06083,0.01678 0.01582,0.0074 0.02797,0.02097 0.04195,0.03146"
       id="path3811"
       inkscape:connector-curvature="0"
       transform="translate(0,1033.3622)" />
    <path
       style="color:#000000;fill:none;stroke:#000000;stroke-width:0.57599401;stroke-linecap:round;stroke-linejoin:round;stroke-miterlimit:4;stroke-opacity:1;stroke-dasharray:none;marker:none;visibility:visible;display:inline;overflow:visible;enable-background:accumulate"
       d="m 1.5161201,1036.0237 c -0.069038,0.083 -0.1446632,0.1596 -0.2071138,0.2483 -0.036875,0.052 -0.059892,0.1147 -0.089107,0.1725 -0.070528,0.1395 -0.1545386,0.3103 -0.2167471,0.4521 -0.04356,0.099 -0.084188,0.2 -0.1252316,0.3005 -0.04646,0.1138 -0.093109,0.2275 -0.1372731,0.3424 -0.044628,0.116 -0.2516114,0.6838 -0.2914044,0.7918 -0.099931,0.2711 -0.2008089,0.5418 -0.3010375,0.8127 -0.1084583,0.2932 -0.14765080013,0.3826 -0.2336051,0.6743 -0.025696,0.087 -0.046784,0.1758 -0.069841,0.2639 -0.018687,0.071 -0.042318,0.1415 -0.055391,0.2143 -0.0079,0.044 -0.024642,0.2919 -0.026491,0.3476 -0.00314,0.095 -0.00651,0.145 0.021675,0.2325 0.00722,0.023 0.016357,0.045 0.031308,0.063 0.01598,0.019 0.066641,0.021 0.08429,0.013 0.020242,-0.01 0.035322,-0.028 0.052983,-0.042"
       id="path3817"
       inkscape:connector-curvature="0" />
    <path
       style="color:#000000;fill:none;stroke:#000000;stroke-width:0.57599401;stroke-linecap:round;stroke-linejoin:round;stroke-miterlimit:4;stroke-opacity:1;stroke-dasharray:none;marker:none;visibility:visible;display:inline;overflow:visible;enable-background:accumulate"
       d="m 1.6847011,1036.0107 c 0.00241,0.06 -8.032e-4,0.1208 0.00723,0.1803 0.012127,0.09 0.070421,0.2386 0.09874,0.3162 0.026124,0.072 0.052983,0.1429 0.079473,0.2143 0.027295,0.081 0.053373,0.1625 0.081883,0.243 0.030101,0.085 0.064947,0.1681 0.093924,0.2535 0.028047,0.083 0.0491,0.1681 0.077065,0.2509 0.025043,0.074 0.054791,0.1463 0.081882,0.2195 0.023483,0.063 0.045785,0.1275 0.069841,0.1908 0.041023,0.1078 0.050851,0.1527 0.1228234,0.2352 0.01811,0.021 0.038977,0.04 0.062616,0.052 0.028004,0.015 0.1176123,0.03 0.1469064,0.016 0.027288,-0.013 0.1315314,-0.1392 0.144498,-0.1568 0.089666,-0.1212 0.085973,-0.136 0.1637644,-0.2744 0.091632,-0.1629 0.1003836,-0.1578 0.1806225,-0.3345 0.027962,-0.062 0.051227,-0.1255 0.077065,-0.1881 0.025539,-0.062 0.052786,-0.1231 0.077065,-0.1856 0.00936,-0.024 0.1151408,-0.32 0.1252317,-0.3502 0.03123,-0.093 0.060494,-0.1946 0.086699,-0.29 0.01001,-0.037 0.019673,-0.073 0.0289,-0.1098 0.00763,-0.03 0.0125,-0.062 0.021675,-0.091 0.00773,-0.025 0.019325,-0.049 0.0289,-0.073 0.012835,-0.033 0.019321,-0.055 0.036124,-0.084 0.00181,0 0.00417,-0.01 0.00723,-0.01 0.00617,0 0.00966,0.011 0.012041,0.018 0.00657,0.019 0.00961,0.04 0.01445,0.06 0.008,0.033 0.016201,0.066 0.024083,0.099 0.032971,0.1387 0.042361,0.1759 0.069841,0.3241 0.013702,0.074 0.02542,0.1481 0.038533,0.2221 0.014985,0.084 0.030947,0.1689 0.045757,0.2535 0.035083,0.2003 0.060476,0.363 0.096332,0.5645 0.018629,0.1046 0.038682,0.209 0.057799,0.3136 0.02022,0.1105 0.03886,0.2215 0.060208,0.3318 0.1106417,0.5403 0.035456,0.1638 0.1372732,0.6978 0.081584,0.4279 0.042682,0.2328 0.1300482,0.6324 0.032064,0.1467 0.074321,0.3586 0.1180067,0.5044 0.019176,0.064 0.045198,0.1253 0.067432,0.1881 0.056707,0.1603 0.054601,0.1637 0.1131902,0.311 0.045947,0.1155 0.038908,0.095 0.089107,0.1986 0.010522,0.022 0.01816,0.045 0.031308,0.065 0.011217,0.017 0.027294,0.03 0.040941,0.044 0.010436,0.011 0.02138,0.022 0.031308,0.034 0.00347,0 0.022995,0.039 0.033716,0.039 0.00163,0 -0.00448,-0.017 -0.00482,-0.018 -0.00335,-0.012 -0.00642,-0.024 -0.00963,-0.037"
       id="path3821"
       inkscape:connector-curvature="0" />
    <path
       style="color:#000000;fill:none;stroke:#000000;stroke-width:0.6;stroke-linecap:round;stroke-linejoin:round;stroke-miterlimit:4;stroke-opacity:1;stroke-dasharray:none;marker:none;visibility:visible;display:inline;overflow:visible;enable-background:accumulate"
       d="m 4.7269126,2.7216482 c 0.649377,-0.052094 -0.049394,0.00104 0.4076636,-0.041813 0.059134,-0.00554 0.1184863,-0.00845 0.1776995,-0.013066 0.7733648,-0.060335 -0.410337,0.030158 0.3893709,-0.03136 0.069676,-0.00536 0.1394148,-0.00991 0.2090582,-0.01568 0.06712,-0.00556 0.1340727,-0.013061 0.2012186,-0.018293 0.067011,-0.00522 0.134173,-0.00831 0.2012185,-0.013066 0.2849512,-0.020223 0.1165114,-0.01568 0.3815313,-0.01568 0.053136,0 0.1063501,-0.00289 0.1594069,0 0.093263,0.00509 0.1392135,0.013312 0.2221244,0.047039 0.053771,0.021874 0.058413,0.026085 0.091463,0.065332 0.00405,0.0048 0.00993,0.00942 0.010453,0.01568 4.853e-4,0.00582 -0.00356,0.011704 -0.00784,0.01568 -0.029026,0.026954 -0.047307,0.020714 -0.08885,0.026133"
       id="path3823"
       inkscape:connector-curvature="0"
       transform="translate(0,1033.3622)" />
    <path
       style="color:#000000;fill:none;stroke:#000000;stroke-width:0.6;stroke-linecap:round;stroke-linejoin:round;stroke-miterlimit:4;stroke-opacity:1;stroke-dasharray:none;marker:none;visibility:visible;display:inline;overflow:visible;enable-background:accumulate"
       d="m 5.0457264,2.9620718 c -0.049651,0.068817 -0.1097658,0.1311825 -0.1489539,0.2064507 -0.00955,0.018337 -0.02865,0.2495951 -0.028746,0.2508769 -0.00434,0.058307 -0.00678,0.1167389 -0.010453,0.1750911 -0.012533,0.1991436 -0.01667,0.2222883 -0.023519,0.4311945 -0.00712,0.2170577 -0.00523,0.2911377 -0.00523,0.5122069 0,0.2068427 -0.00169,0.3333916 0.00523,0.5409531 0.00714,0.2140759 0.017188,0.3124541 0.026132,0.5226601 0.00254,0.059706 0.012043,0.3727057 0.013066,0.4468743 8.049e-4,0.058358 0.00179,0.116755 0,0.1750911 -0.00169,0.054964 -0.00773,0.1097156 -0.010453,0.1646379 -0.0025,0.050492 -0.00348,0.1010476 -0.00523,0.1515715 -0.00174,0.050524 -0.00437,0.1010248 -0.00523,0.1515714 -0.00278,0.1637907 0.00352,0.1435567 -0.00261,0.3031428 -0.00507,0.1318403 -0.00787,0.1133668 -0.020906,0.2404236 -0.00556,0.054236 -0.010561,0.095895 -0.00784,0.1489581 1.682e-4,0.00328 0.00486,0.051538 0.010453,0.062719 7.791e-4,0.00156 0.00485,0.0017 0.00523,0 0.0017,-0.00765 0,-0.01568 0,-0.02352"
       id="path3825"
       inkscape:connector-curvature="0"
       transform="translate(0,1033.3622)" />
    <path
       style="color:#000000;fill:none;stroke:#000000;stroke-width:0.6;stroke-linecap:round;stroke-linejoin:round;stroke-miterlimit:4;stroke-opacity:1;stroke-dasharray:none;marker:none;visibility:visible;display:inline;overflow:visible;enable-background:accumulate"
       d="m 5.1058307,4.9926061 c 0.065331,-0.027004 0.1277416,-0.062595 0.1959921,-0.081012 0.042965,-0.011594 0.088841,-0.00537 0.1332746,-0.00784 0.1099927,-0.00611 0.203154,-0.0098 0.3135873,-0.018293 0.058423,-0.00449 0.116598,-0.012135 0.1750863,-0.01568 0.056543,-0.00343 0.1132279,-0.00393 0.1698598,-0.00523 0.1559185,-0.00357 0.311826,-0.00261 0.4677678,-0.00261 0.041812,0 0.083623,0 0.1254349,0 0.030488,0 0.061013,-0.00152 0.091463,0 0.021906,0.0011 0.043462,0.00616 0.065331,0.00784 0.00763,5.872e-4 0.03617,-0.00564 0.047038,0.00523 0.00123,0.00123 0,0.00348 0,0.00523 0,0.00261 0,0.00523 0,0.00784"
       id="path3827"
       inkscape:connector-curvature="0"
       transform="translate(0,1033.3622)" />
    <path
       style="color:#000000;fill:none;stroke:#000000;stroke-width:0.6;stroke-linecap:round;stroke-linejoin:round;stroke-miterlimit:4;stroke-opacity:1;stroke-dasharray:none;marker:none;visibility:visible;display:inline;overflow:visible;enable-background:accumulate"
       d="m 4.7478185,7.3916157 c 0.096689,0.057493 0.1850911,0.1320545 0.2900683,0.1724779 0.051219,0.019723 0.1097501,0.00302 0.1646333,0.00261 0.063611,-4.678e-4 0.127263,-0.00149 0.1907656,-0.00523 0.1646296,-0.00968 0.2688645,-0.02582 0.4337959,-0.04704 0.074048,-0.00953 0.1483041,-0.017587 0.2221243,-0.028746 0.5261445,-0.079536 -0.064207,-0.00167 0.4442488,-0.070559 0.1367761,-0.018531 0.2297032,-0.027822 0.3658518,-0.044426 0.047941,-0.00585 0.096023,-0.01076 0.1437276,-0.018293 0.3011308,-0.047548 -0.06438,2.078e-4 0.1881524,-0.03136"
       id="path3831"
       inkscape:connector-curvature="0"
       transform="translate(0,1033.3622)" />
    <path
       style="color:#000000;fill:none;stroke:#000000;stroke-width:0.6;stroke-linecap:round;stroke-linejoin:round;stroke-miterlimit:4;stroke-opacity:1;stroke-dasharray:none;marker:none;visibility:visible;display:inline;overflow:visible;enable-background:accumulate"
       d="m 9.2242777,2.4472517 c -0.00477,-0.026069 0.012066,-0.1710986 -0.054878,-0.2012242 -0.02254,-0.010143 -0.058896,-0.00991 -0.08101,-0.010453 -0.073016,-0.00178 -0.054267,-0.00322 -0.1332746,0.02352 -0.031581,0.010689 -0.06459,0.01841 -0.094076,0.033973 -0.033765,0.017821 -0.061989,0.044644 -0.094076,0.065333 -0.034151,0.022019 -0.071045,0.039698 -0.1045292,0.062719 -0.080755,0.055521 -0.1392434,0.1114574 -0.2116714,0.1777044 -0.035932,0.032865 -0.073976,0.063651 -0.1071424,0.099305 -0.036693,0.039446 -0.067895,0.083665 -0.1019158,0.1254384 -0.08738,0.1072928 -0.1329652,0.1520784 -0.1986054,0.2770098 -0.07677,0.1461141 -0.1201901,0.3071291 -0.1019158,0.4730074 0.00558,0.050621 0.015897,0.1013457 0.033972,0.1489581 0.017987,0.047382 0.046657,0.090086 0.07317,0.1332783 0.077614,0.1264398 0.1026961,0.1451996 0.1959921,0.2639433 0.062541,0.0796 0.123819,0.1601852 0.1855392,0.2404236 0.069174,0.089929 0.1094657,0.1487055 0.1855391,0.2325838 0.035176,0.038784 0.07211,0.07598 0.1097556,0.1123719 0.040781,0.039423 0.084259,0.075975 0.1254349,0.1149852 0.041587,0.039399 0.081029,0.08103 0.1228218,0.1202118 0.1288606,0.1208102 0.1298483,0.1032587 0.2404169,0.2404236 0.038975,0.04835 0.1450126,0.2013523 0.1750863,0.2587167 0.02374,0.045283 0.041867,0.093353 0.060104,0.1411183 0.040348,0.1056754 0.064116,0.1804808 0.078397,0.2926896 0.00595,0.046735 0.00652,0.094025 0.00784,0.1411182 0.00129,0.04615 0.00358,0.092475 0,0.1385049 C 9.526762,6.2622007 9.505339,6.313798 9.475148,6.4194684 9.461967,6.4656044 9.45178,6.5126784 9.43595,6.5579734 9.410728,6.6301394 9.353499,6.7491569 9.3183547,6.8166901 9.2958577,6.8599211 9.2737407,6.9034861 9.2477977,6.9447418 9.198888,7.0225165 9.11282,7.133902 9.0491915,7.1982315 8.9312796,7.3174424 8.7894014,7.4152766 8.6336882,7.4778546 c -0.043202,0.017362 -0.088265,0.029898 -0.1332746,0.041813 -0.043933,0.01163 -0.088101,0.023777 -0.1332746,0.028746 -0.042427,0.00467 -0.085365,0 -0.1280482,0 -0.087376,0 -0.1495923,0.00603 -0.2351905,-0.018293 C 7.9813368,7.5237104 7.8195944,7.4527668 7.7948421,7.4360418 7.7595345,7.4121847 7.7301675,7.3805381 7.6981527,7.3524162 7.665706,7.323915 7.6313534,7.2973493 7.6014632,7.2661773 7.5255965,7.187057 7.4941295,7.1262135 7.426377,7.0388202 7.3971978,7.0011822 7.3654017,6.9656478 7.334914,6.9290616"
       id="path3835"
       inkscape:connector-curvature="0"
       transform="translate(0,1033.3622)" />
    <path
       style="color:#000000;fill:none;stroke:#000000;stroke-width:0.6;stroke-linecap:round;stroke-linejoin:round;stroke-miterlimit:4;stroke-opacity:1;stroke-dasharray:none;marker:none;visibility:visible;display:inline;overflow:visible;enable-background:accumulate"
       d="M 11.338379,2.4367985 C 11.273919,2.3845324 11.214282,2.325682 11.145,2.2800004 c -0.01236,-0.00815 -0.02962,0 -0.04443,0 -0.02091,0 -0.04181,0 -0.06272,0 -0.116137,0 -0.04597,-0.00634 -0.156794,0.018293 -0.0408,0.00907 -0.08098,0.011307 -0.117595,0.033973 -0.02105,0.013033 -0.03649,0.033916 -0.05749,0.047039 -0.02115,0.013221 -0.04652,0.018581 -0.06794,0.03136 -0.02844,0.016963 -0.05384,0.038559 -0.08101,0.057493 -0.03033,0.021138 -0.06122,0.041465 -0.09146,0.062719 -0.03422,0.024045 -0.07075,0.045286 -0.101916,0.073172 -0.03537,0.031649 -0.06626,0.068104 -0.09669,0.104532 -0.05414,0.064821 -0.12905,0.168551 -0.164634,0.2456502 -0.03031,0.065684 -0.07238,0.2153983 -0.08362,0.287463 -0.0073,0.046605 -0.0087,0.093983 -0.01045,0.1411182 -0.0042,0.110295 -0.0076,0.1601157 0.03397,0.2639434 0.0556,0.1389902 0.165076,0.2472498 0.269162,0.3501822 0.330534,0.3268701 -0.08861,-0.09119 0.253484,0.2299704 0.07572,0.071084 0.182822,0.1871308 0.245643,0.26917 0.110109,0.1437931 0.194334,0.3049517 0.266549,0.470394 0.02407,0.05515 0.04514,0.1115631 0.06794,0.1672512 0.0225,0.054942 0.04483,0.1099547 0.06794,0.1646379 0.07643,0.1807928 0.05644,0.1307991 0.138501,0.3057562 0.04915,0.1047975 0.08896,0.18096 0.120209,0.2926896 0.01486,0.053144 0.02512,0.1075573 0.03397,0.1620246 0.02235,0.1374773 0.02055,0.184373 0.01829,0.3240492 -8.57e-4,0.053159 -2.92e-4,0.1064752 -0.0052,0.1594114 -0.0093,0.099761 -0.0314,0.2018204 -0.06794,0.2953029 -0.01901,0.048625 -0.04315,0.095177 -0.06794,0.1411182 -0.07158,0.1326074 -0.103769,0.1801161 -0.203832,0.2926896 -0.08708,0.097968 -0.183403,0.1960719 -0.295295,0.2665567 -0.05505,0.034676 -0.116726,0.057487 -0.175086,0.086239 -0.06011,0.029612 -0.118355,0.063339 -0.180313,0.088852 -0.109954,0.045276 -0.226701,0.071514 -0.342332,0.096692 -0.1879538,0.040926 -0.118754,0.03136 -0.3031349,0.03136 -0.043554,0 -0.087385,0.00491 -0.1306614,0 C 9.686728,7.8336842 9.5707994,7.7964467 9.5117328,7.767931 9.4644105,7.7450851 9.3147545,7.6462656 9.2765423,7.6215862"
       id="path3837"
       inkscape:connector-curvature="0"
       transform="translate(0,1033.3622)" />
    <path
       style="color:#000000;fill:none;stroke:#000000;stroke-width:0.6;stroke-linecap:round;stroke-linejoin:round;stroke-miterlimit:4;stroke-opacity:1;stroke-dasharray:none;marker:none;visibility:visible;display:inline;overflow:visible;enable-background:accumulate"
       d="m 12.814853,2.285227 c -0.0078,0.084497 -0.01242,0.1693597 -0.02352,0.2534902 -0.0055,0.041498 -0.01739,0.08189 -0.02613,0.1228251 -0.01042,0.048789 -0.02101,0.097542 -0.03136,0.1463448 -0.157303,0.7415889 0.08856,-0.4088925 -0.09408,0.4285812 -0.01896,0.086966 -0.0364,0.1742599 -0.05488,0.2613301 -0.02274,0.1071205 -0.103575,0.4814785 -0.125435,0.5879925 -0.02571,0.1252764 -0.09764,0.4936097 -0.120209,0.6167389 -0.01914,0.1043809 -0.03537,0.2092834 -0.05488,0.313596 -0.02057,0.1099918 -0.04347,0.2195335 -0.06533,0.3292758 -0.005,0.025236 -0.114383,0.5736805 -0.122822,0.608899 -0.02192,0.091461 -0.05297,0.1805408 -0.07578,0.2717832 -0.01989,0.079564 -0.03323,0.1606506 -0.05226,0.2404236 -0.04256,0.178353 -0.07055,0.2433805 -0.101916,0.4207414 -0.01071,0.060539 -0.01571,0.1219496 -0.02352,0.182931 -0.0061,0.047906 -0.01508,0.095542 -0.01829,0.1437315 -0.0029,0.043459 0,0.08711 0,0.130665 0,0.058973 -0.0019,0.1290018 0.0052,0.1881577 0.0034,0.028155 0.01102,0.055651 0.01568,0.083626 0.0041,0.024303 0.0076,0.048703 0.01045,0.073172 0.0065,0.055291 6.39e-4,0.061384 0.02352,0.1071453"
       id="path3839"
       inkscape:connector-curvature="0"
       transform="translate(0,1033.3622)" />
    <path
       style="color:#000000;fill:none;stroke:#000000;stroke-width:0.6;stroke-linecap:round;stroke-linejoin:round;stroke-miterlimit:4;stroke-opacity:1;stroke-dasharray:none;marker:none;visibility:visible;display:inline;overflow:visible;enable-background:accumulate"
       d="m 13.337498,2.4132788 c -0.0331,0.067075 -0.08116,0.1286596 -0.0993,0.2012241 -0.0092,0.036963 0.01314,0.075073 0.0209,0.1123719 0.03154,0.1514017 0.03588,0.1515724 0.0784,0.313596 0.01689,0.064373 0.03204,0.1292061 0.04965,0.1933842 0.01897,0.069117 0.04125,0.1373022 0.0601,0.2064508 0.03146,0.1153643 0.08688,0.3416555 0.112369,0.4573275 0.07015,0.3184002 0.02602,0.1475504 0.09408,0.4808472 0.115027,0.5633551 -0.0056,-0.07577 0.109755,0.5122069 0.01842,0.093889 0.03265,0.1885915 0.05227,0.2822364 0.01872,0.089339 0.04415,0.1771859 0.06272,0.2665566 0.01891,0.091008 0.03108,0.1833193 0.04965,0.2743966 0.05261,0.2580677 0.06302,0.26074 0.122822,0.5122068 0.01858,0.078132 0.03456,0.156861 0.05226,0.235197 0.01714,0.07585 0.03578,0.1513613 0.05227,0.2273572 0.01488,0.068619 0.02769,0.137671 0.04181,0.2064507 0.01877,0.09142 0.05486,0.264249 0.07578,0.3580221 0.01091,0.048877 0.02205,0.097706 0.03397,0.1463448 0.03695,0.1507762 0.02613,0.082881 0.05226,0.2247439 0.0083,0.045001 0.02056,0.1163866 0.02352,0.1646379 0.0012,0.019128 0,0.038328 0,0.057493"
       id="path3845"
       inkscape:connector-curvature="0"
       transform="translate(0,1033.3622)" />
    <path
       style="color:#000000;fill:none;stroke:#000000;stroke-width:0.6;stroke-linecap:round;stroke-linejoin:round;stroke-miterlimit:4;stroke-opacity:1;stroke-dasharray:none;marker:none;visibility:visible;display:inline;overflow:visible;enable-background:accumulate"
       d="m 12.331406,6.5945592 c 0.153853,-0.015609 0.189882,-0.022418 0.339719,-0.026133 0.05225,-0.0013 0.104529,0 0.156794,0 0.05401,0 0.10808,-0.00267 0.16202,0 0.0516,0.00256 0.102787,0.010453 0.15418,0.01568 0.314978,0.032032 -0.0046,2.533e-4 0.303135,0.028746 0.04445,0.00412 0.08875,0.00992 0.133274,0.013066 0.158611,0.00661 0.08372,0.00193 0.224738,0.013066"
       id="path3847"
       inkscape:connector-curvature="0"
       transform="translate(0,1033.3622)" />
    <path
       style="color:#000000;fill:none;stroke:#000000;stroke-width:0.6;stroke-linecap:round;stroke-linejoin:round;stroke-miterlimit:4;stroke-opacity:1;stroke-dasharray:none;marker:none;visibility:visible;display:inline;overflow:visible;enable-background:accumulate"
       d="m 16.008217,2.4812246 c -0.0061,-0.06359 -0.0075,-0.1278035 -0.01829,-0.190771 -9.86e-4,-0.00576 -0.01061,-0.00494 -0.01568,-0.00784 -0.0071,-0.00408 -0.013,-0.010809 -0.02091,-0.013067 -0.01289,-0.00368 -0.06554,-0.00261 -0.07578,-0.00261 -0.01742,0 -0.03515,-0.00328 -0.05227,0 -0.02635,0.00505 -0.120486,0.042741 -0.143727,0.052266 -0.02889,0.011842 -0.05925,0.020877 -0.08624,0.036586 -0.03177,0.018494 -0.05987,0.042708 -0.08885,0.065333 -0.03464,0.027045 -0.07009,0.053328 -0.101915,0.083626 -0.07536,0.07173 -0.176066,0.1939162 -0.240417,0.2717832 -0.101296,0.122571 -0.179887,0.217618 -0.269163,0.3501822 -0.04415,0.065559 -0.08521,0.133185 -0.125435,0.2012241 -0.102045,0.1726136 -0.151894,0.2684417 -0.232577,0.4547143 -0.03543,0.081787 -0.06999,0.1640925 -0.0993,0.2482635 -0.058,0.1665495 -0.117558,0.3947189 -0.151567,0.5670862 -0.02249,0.1140119 -0.07253,0.4668881 -0.08885,0.5827659 -0.01251,0.088809 -0.02585,0.1775166 -0.03659,0.2665566 -0.02723,0.2258239 -0.02554,0.2631074 -0.04443,0.4834606 -0.01775,0.2071499 -0.02909,0.2279284 -0.02091,0.4285812 0.0041,0.1001036 0.01509,0.2437223 0.05488,0.3397291 0.02954,0.071274 0.119313,0.1888966 0.172473,0.2456502 0.07002,0.074757 0.123297,0.1135194 0.209058,0.1672512 0.06159,0.038587 0.159574,0.091705 0.227351,0.1175985 0.03733,0.014263 0.07654,0.023047 0.114982,0.033973 0.04431,0.012595 0.08791,0.02858 0.133275,0.036586 0.05201,0.00918 0.210576,0.015027 0.263936,0.010453 0.08308,-0.00712 0.193256,-0.033993 0.274389,-0.054879 0.04461,-0.011485 0.08948,-0.022286 0.133274,-0.036586 0.04167,-0.013609 0.08173,-0.03175 0.122822,-0.047039 0.112293,-0.041785 0.09061,-0.026143 0.193379,-0.083626 0.03998,-0.022362 0.108071,-0.059987 0.117595,-0.1123719 0.0031,-0.017141 0,-0.034844 0,-0.052266"
       id="path3849"
       inkscape:connector-curvature="0"
       transform="translate(0,1033.3622)" />
    <path
       style="color:#000000;fill:none;stroke:#000000;stroke-width:0.6;stroke-linecap:round;stroke-linejoin:round;stroke-miterlimit:4;stroke-opacity:1;stroke-dasharray:none;marker:none;visibility:visible;display:inline;overflow:visible;enable-background:accumulate"
       d="m 16.070935,5.4603868 c 0.0061,0.059235 0.01488,0.1182544 0.01829,0.1777045 0.0027,0.046962 -3.89e-4,0.09408 0,0.1411182 4.83e-4,0.058368 1.32e-4,0.1167737 0.0026,0.1750911 0.0074,0.1735743 0.0196,0.2395398 0.03397,0.418128 0.0062,0.076587 0.01065,0.1533003 0.01568,0.2299705 0.02143,0.3268532 0.04185,0.6538841 0.07317,0.9799876 0.01561,0.1624879 0.02853,0.2682163 0.04704,0.4285812"
       id="path3857"
       inkscape:connector-curvature="0"
       transform="translate(0,1033.3622)" />
    <path
       style="color:#000000;fill:none;stroke:#000000;stroke-width:0.6;stroke-linecap:round;stroke-linejoin:round;stroke-miterlimit:4;stroke-opacity:1;stroke-dasharray:none;marker:none;visibility:visible;display:inline;overflow:visible;enable-background:accumulate"
       d="m 19.371439,2.5099687 c -0.0078,-0.00523 -0.01442,-0.01309 -0.02352,-0.01568 -0.02258,-0.00645 -0.07856,0.010437 -0.09146,0.013067 -0.02695,0.00549 -0.05389,0.0111 -0.08101,0.01568 -0.03474,0.00587 -0.06976,0.01001 -0.104529,0.01568 -0.04537,0.0074 -0.09028,0.01777 -0.135888,0.02352 -0.05117,0.00646 -0.10283,0.00822 -0.15418,0.013067 -0.166101,0.015695 -0.202865,0.023791 -0.373692,0.033973 -0.06614,0.00394 -0.132455,0.00407 -0.198605,0.00784 -0.0715,0.00407 -0.142775,0.01168 -0.214285,0.01568 -0.06876,0.00384 -0.137635,0.00516 -0.206445,0.00784 -0.06533,0.00255 -0.130622,0.00642 -0.195992,0.00784 -0.06335,0.00138 -0.225075,0.00219 -0.295295,-0.00784 -0.06071,-0.00867 -0.120212,-0.024391 -0.180312,-0.036586 0.03658,0.098434 0.07754,0.1953544 0.109755,0.2953029 0.01041,0.032288 0.03278,0.2077474 0.03658,0.2299704 0.0084,0.048999 0.02078,0.097274 0.02875,0.1463448 0.02098,0.1291893 0.02375,0.1979319 0.03658,0.3292759 0.0058,0.059265 0.01241,0.1184479 0.01829,0.1777044 0.02265,0.2281083 0.01605,0.1623228 0.03397,0.3998349 0.0052,0.068819 0.01275,0.1374977 0.01568,0.2064507 0.0024,0.057722 0.0039,0.4257154 0.0026,0.4730074 -0.0048,0.1841942 -0.02195,0.3457987 -0.03397,0.5304999 -0.0061,0.093157 -0.0086,0.1865363 -0.01568,0.2796232 -0.0069,0.090752 -0.02178,0.180875 -0.02613,0.2717832 -0.0044,0.091361 4.64e-4,0.1829322 0,0.2743965 -4.07e-4,0.080145 -0.0013,0.1602891 -0.0026,0.2404236 -0.0013,0.074924 -0.0057,0.1498104 -0.0052,0.2247439 5.5e-5,0.00913 0.01483,0.3870151 0.01568,0.4024482 0.03567,0.6509744 -0.0096,-0.2460821 0.02875,0.3527955 0.0034,0.053057 0.0024,0.1063232 0.0052,0.1594114 0.0024,0.04363 0.0076,0.087061 0.01045,0.130665 0.0088,0.1365322 0.0034,0.085843 0.0052,0.2195172 0.0033,0.2404266 0.0026,-0.049707 0.0026,0.1489581 0,0.01568 0,0.03136 0,0.047039 0,0.00523 0.0023,0.011005 0,0.01568 -0.0012,0.00234 -0.0078,0.00261 -0.0078,0 0,-0.00261 0.0052,0 0.0078,0"
       id="path3865"
       inkscape:connector-curvature="0"
       transform="translate(0,1033.3622)" />
    <path
       style="color:#000000;fill:none;stroke:#000000;stroke-width:0.6;stroke-linecap:round;stroke-linejoin:round;stroke-miterlimit:4;stroke-opacity:1;stroke-dasharray:none;marker:none;visibility:visible;display:inline;overflow:visible;enable-background:accumulate"
       d="m 17.646711,5.3950543 c 0.369033,-0.1042948 0.118751,-0.038242 0.344946,-0.091465 0.143056,-0.033661 0.09551,-0.027983 0.245643,-0.049653 0.04171,-0.00602 0.08338,-0.013105 0.125435,-0.01568 0.04347,-0.00266 0.08711,0 0.130662,0 0.0392,0 0.07842,-0.00137 0.117595,0 0.03579,0.00125 0.07141,0.00552 0.107142,0.00784 0.03134,0.00204 0.06285,0.00186 0.09408,0.00523 0.02549,0.00274 0.0507,0.00776 0.07578,0.013067 0.06016,0.012727 0.04667,0.016359 0.09669,0.020906 0.0095,8.676e-4 0.01916,0 0.02874,0"
       id="path3867"
       inkscape:connector-curvature="0"
       transform="translate(0,1033.3622)" />
    <path
       style="color:#000000;fill:none;stroke:#000000;stroke-width:0.6;stroke-linecap:round;stroke-linejoin:round;stroke-miterlimit:4;stroke-opacity:1;stroke-dasharray:none;marker:none;visibility:visible;display:inline;overflow:visible;enable-background:accumulate"
       d="m 17.406294,8.1233398 c 0.0662,-0.00261 0.132355,-0.00721 0.198605,-0.00784 0.02532,-2.411e-4 0.05047,0.00446 0.07578,0.00523 0.03222,9.762e-4 0.06446,0 0.09669,0 0.113994,0 0.178178,0.00215 0.295295,-0.00784 0.05856,-0.00499 0.11661,-0.014974 0.175086,-0.020906 0.06175,-0.00626 0.123696,-0.010416 0.18554,-0.01568 0.06098,-0.00519 0.121878,-0.01138 0.182926,-0.01568 0.06266,-0.00441 0.125497,-0.00598 0.188152,-0.010453 0.200219,-0.014302 0.159296,-0.018621 0.363239,-0.028746 0.06093,-0.00302 0.121989,-0.00244 0.182926,-0.00523 0.05319,-0.00244 0.106185,-0.00872 0.159406,-0.010453 0.05398,-0.00176 0.108014,0 0.162021,0 0.08798,0 0.175957,0 0.263936,0 0.03484,0 0.06969,0 0.104529,0 0.02439,0 0.04899,0.00322 0.07317,0 0.01557,-0.00208 0.02962,-0.010453 0.04443,-0.01568"
       id="path3869"
       inkscape:connector-curvature="0"
       transform="translate(0,1033.3622)" />
  </g>
</svg>
